<svg width="200" height="96" viewBox="0 0 200 96" fill="none" xmlns="http://www.w3.org/2000/svg">
<g clip-path="url(#clip0)">
<path d="M158.338 44.2779C158.426 44.4073 158.544 44.5134 158.682 44.587C158.82 44.6605 158.974 44.6994 159.131 44.7001C159.58 44.7001 160.023 44.4156 160.256 44.262L165.807 40.8571C166.192 40.6063 166.6 40.2871 166.69 39.8182C166.757 39.4713 166.644 39.1025 166.335 38.6604L165.88 38.0003C165.636 37.6841 165.347 37.5046 165.018 37.459C164.595 37.4035 164.133 37.577 163.6 37.9894L158.545 41.991C158.083 42.33 157.822 42.6928 157.771 43.0705C157.73 43.3728 157.821 43.6653 158.052 43.9626L158.338 44.2779Z" fill="#ED7D3A"/>
<path d="M67.3161 38.682C67.7774 38.3738 68.3197 38.2092 68.8746 38.2092C69.6183 38.21 70.3314 38.5058 70.8573 39.0317C71.3832 39.5576 71.679 40.2707 71.6798 41.0145C71.6798 41.5693 71.5153 42.1117 71.207 42.573C70.8988 43.0343 70.4607 43.3939 69.9481 43.6062C69.4355 43.8185 68.8714 43.8741 68.3273 43.7658C67.7831 43.6576 67.2833 43.3904 66.891 42.9981C66.4987 42.6058 66.2315 42.1059 66.1232 41.5617C66.015 41.0176 66.0705 40.4535 66.2829 39.941C66.4952 39.4284 66.8547 38.9902 67.3161 38.682Z" fill="#ED7D3A"/>
<path fill-rule="evenodd" clip-rule="evenodd" d="M52.6799 46.6714C49.6675 46.6714 47.3777 47.4138 44.7747 49.2367C44.5897 49.359 44.4313 49.5174 44.309 49.7024C44.1867 49.8874 44.103 50.0951 44.063 50.3132C44.0378 50.5127 44.0538 50.7152 44.1101 50.9082C44.1664 51.1012 44.2617 51.2806 44.3901 51.4353L44.6349 51.7615C45.3615 52.7061 46.096 52.4682 46.5847 52.1005C48.3323 50.7811 50.4407 50.0545 52.5213 50.0545C55.7121 50.0545 57.7749 51.8626 57.7749 54.6599V55.8187C55.8221 54.9503 53.909 54.53 51.9553 54.53C46.6442 54.53 43.0767 57.366 43.0767 61.5867C43.0767 65.7103 46.3478 68.4819 51.2267 68.4819C53.7195 68.4935 56.1163 67.5214 57.8968 65.7768V66.5261C57.8968 67.4183 58.441 67.9952 59.2846 67.9952H60.0944C60.598 67.9952 61.4415 67.8049 61.4415 66.5261V55.2665C61.4396 49.8047 58.2448 46.6714 52.6799 46.6714ZM51.588 65.1354C48.7142 65.1349 46.8632 63.7562 46.8632 61.6244C46.8632 59.3059 48.9577 57.7486 52.0752 57.7486C54.3065 57.7486 56.4 58.5277 57.8136 59.2157V60.3278C57.8106 63.3368 54.6465 65.1349 51.588 65.1354Z" fill="#ED7D3A"/>
<path d="M69.3617 46.9551H68.3497C67.5061 46.9551 66.9619 47.532 66.9619 48.4241V66.5233C66.9619 67.4026 67.519 67.9924 68.3497 67.9924H69.3617C70.1924 67.9924 70.7495 67.3976 70.7495 66.5233V48.4241C70.7505 47.532 70.2053 46.9551 69.3617 46.9551Z" fill="#ED7D3A"/>
<path d="M100.865 46.6714C97.6997 46.6714 95.0481 48.0304 93.5087 50.4203C92.0952 47.9997 89.6091 46.6714 86.449 46.6714C83.8321 46.6714 81.5968 47.5833 80.0634 49.2586V48.4239C80.0634 47.5318 79.5182 46.9549 78.6756 46.9549H77.8658C77.0222 46.9549 76.478 47.5318 76.478 48.4239V66.5231C76.478 67.4024 77.0361 67.9922 77.8658 67.9922H78.8778C79.7204 67.9922 80.2656 67.4163 80.2656 66.5231V55.6719C80.2656 52.3364 82.5068 50.0952 85.8424 50.0952C89.0292 50.0952 90.9324 52.1768 90.9324 55.6719V66.5231C90.9324 67.4024 91.4905 67.9922 92.3202 67.9922H93.3739C94.1917 67.9922 94.721 67.4163 94.721 66.5231V55.6719C94.721 52.3364 96.9622 50.0952 100.298 50.0952C103.485 50.0952 105.388 52.1768 105.388 55.6719V66.5231C105.388 67.4153 105.917 67.9922 106.736 67.9922H107.789C108.618 67.9922 109.176 67.3974 109.176 66.5231V55.3884C109.176 50.0932 105.914 46.6714 100.865 46.6714Z" fill="#ED7D3A"/>
<path fill-rule="evenodd" clip-rule="evenodd" d="M113.121 57.5751C113.121 51.359 117.878 46.6714 124.186 46.6714C130.497 46.6714 135.252 51.359 135.252 57.5751C135.252 63.7913 130.494 68.4789 124.186 68.4789C117.879 68.4789 113.121 63.7913 113.121 57.5751ZM116.95 57.5751C116.95 61.8811 119.993 65.0095 124.186 65.0095V65.0135C128.381 65.0135 131.423 61.8861 131.423 57.5751C131.423 53.2642 128.379 50.1358 124.186 50.1358C119.993 50.1358 116.95 53.2691 116.95 57.5751Z" fill="#ED7D3A"/>
<path d="M150.143 46.9264H150.13C149.434 46.7459 148.716 46.6615 147.997 46.6756C145.939 46.6756 144.239 47.5211 143.028 49.1349V48.4281C143.028 47.536 142.483 46.9591 141.64 46.9591H140.831C139.987 46.9591 139.443 47.536 139.443 48.4281V66.5234C139.443 67.4026 140.001 67.9924 140.831 67.9924H141.843C142.686 67.9924 143.23 67.4165 143.23 66.5234V56.1152C143.23 52.4575 144.99 50.0934 147.714 50.0934C148.171 50.0954 148.624 50.1741 149.055 50.3263C149.973 50.5722 150.618 50.2411 150.875 49.3847L151.034 48.7473C151.183 48.2328 151.172 47.8314 151 47.5181C150.795 47.1484 150.412 47.0027 150.143 46.9264Z" fill="#ED7D3A"/>
<path fill-rule="evenodd" clip-rule="evenodd" d="M151.388 57.6564C151.388 51.3937 155.901 46.6714 161.886 46.6714C164.757 46.6714 167.265 47.6388 169.138 49.4737C171.153 51.4482 172.263 54.1831 172.263 57.1747C172.263 58.0916 171.561 58.7607 170.592 58.7607H155.288C155.8 63.1123 159.303 65.0948 162.412 65.0948C164.642 65.0948 166.675 64.3424 168.459 62.8555C169.255 62.1874 169.978 62.2013 170.606 62.8813L170.992 63.2272C171.615 63.8864 171.584 64.612 170.921 65.2742C167.846 68.2479 163.631 68.4789 162.412 68.4789C156.934 68.4789 151.388 64.7607 151.388 57.6564ZM166.617 51.9528C165.488 50.7078 163.856 50.0545 161.886 50.0545C158.443 50.0545 155.966 52.1312 155.349 55.4985H168.341C168.072 54.0344 167.481 52.8152 166.617 51.9528Z" fill="#ED7D3A"/>
<path d="M183.099 55.4013L183.606 55.6174C186.894 57.02 189.998 58.3493 190.001 62.4323C190.001 66.0493 186.971 68.4789 182.459 68.4789C179.548 68.4789 176.55 67.1665 174.826 65.1354C174.18 64.2958 174.221 63.589 174.936 63.022L175.207 62.7514C175.721 62.3113 176.48 61.8544 177.372 62.799C178.713 64.3018 180.416 65.0948 182.299 65.0948C184.654 65.0948 186.175 64.0658 186.175 62.4739C186.175 60.4803 184.295 59.7087 181.919 58.7335L181.535 58.5763L181.532 58.5752C178.891 57.4959 175.604 56.1525 175.604 52.5941C175.604 49.0504 178.471 46.6714 182.74 46.6714C184.501 46.6714 187.037 47.1373 189.11 49.3567C190.003 50.2478 189.647 51.016 189.191 51.5008L188.901 51.7902C188.2 52.492 187.436 52.5237 186.749 51.8774C185.317 50.4837 184.286 50.0149 182.659 50.0149C180.699 50.0149 179.432 50.9209 179.432 52.3106C179.432 53.7003 180.819 54.4101 183.099 55.4013Z" fill="#ED7D3A"/>
<path d="M41.0745 30.7036C36.9113 26.1795 29.1537 26.5195 23.7871 31.4609C23.5552 31.675 23.3341 31.895 23.117 32.12C19.1798 31.2279 15.187 32.1538 12.5949 34.9739C10.547 37.1972 9.66578 40.2275 10.1168 43.5125C10.4022 45.5086 11.1208 47.4181 12.2222 49.1071C11.3351 51.3723 11.0126 53.8194 11.2825 56.2371C11.6503 59.7065 13.1252 62.8646 15.4339 65.1207C17.5155 67.1518 20.1116 68.2699 22.7523 68.2699C23.092 68.2698 23.4314 68.2519 23.7693 68.2164C29.8843 67.5671 34.2329 61.1379 33.4627 53.8829C33.3816 53.1196 33.2447 52.3633 33.0533 51.6199C33.1524 51.4692 33.2446 51.3146 33.3338 51.159C35.4035 50.475 37.3015 49.3533 38.8987 47.87C41.468 45.5049 43.1224 42.4409 43.5576 39.2461C44.0027 35.9592 43.1214 32.9269 41.0745 30.7036ZM31.0738 54.1367C31.7042 60.0753 28.3122 65.321 23.5125 65.8334C21.2327 66.0753 18.9528 65.2139 17.1081 63.4069C15.1979 61.5374 13.9757 58.9036 13.6615 55.9834C13.4942 54.4382 13.6067 52.8754 13.9936 51.3701C14.2434 51.6348 14.5021 51.8935 14.7727 52.1423C17.341 54.5084 20.5309 55.909 23.7544 56.0766C23.9778 56.0885 24.1995 56.0944 24.4195 56.0944C26.9423 56.0944 29.243 55.3014 31.0381 53.8542C31.05 53.9474 31.0639 54.0405 31.0738 54.1367ZM12.4908 43.1883C12.1419 40.627 12.8061 38.2856 14.3554 36.6005C15.7897 35.0423 17.8803 34.1838 20.2404 34.1838C20.6237 34.1846 21.0066 34.2071 21.3873 34.2512C20.1973 35.9994 19.4226 37.9964 19.1223 40.0897C19.0203 40.8288 18.9871 41.5758 19.0232 42.321C16.8593 43.0238 14.9591 44.4918 13.5366 46.5913C13.0071 45.5207 12.6539 44.3716 12.4908 43.1883ZM23.3758 47.0017C22.6539 46.2133 22.1147 45.2755 21.7967 44.2549C21.8611 44.2549 21.9246 44.25 21.988 44.25C24.03 44.25 25.9827 45.1024 27.6381 46.7162C28.4408 47.5072 29.118 48.416 29.6464 49.4114C27.1256 49.5046 24.8894 48.6472 23.3758 47.0017ZM19.4266 44.7218C19.8386 46.1749 20.5855 47.5111 21.6074 48.6234C23.5036 50.6832 26.2167 51.8172 29.2469 51.8172C29.4095 51.8172 29.575 51.8102 29.7425 51.8043C28.2269 53.1266 26.1631 53.7927 23.8823 53.6728C21.2148 53.535 18.5573 52.3614 16.3983 50.3789C15.8856 49.9066 15.4104 49.3952 14.9769 48.8494C15.1246 48.5738 15.2822 48.3062 15.4527 48.0465C16.4955 46.4555 17.8694 45.3235 19.4246 44.7287L19.4266 44.7218ZM31.8797 48.5074C31.2186 47.2058 30.3513 46.0198 29.3114 44.9954C27.0582 42.7938 24.2718 41.6945 21.418 41.866C21.4113 41.3788 21.4411 40.8917 21.5072 40.4089C21.7759 38.4363 22.6165 36.5162 23.9209 34.843C25.5276 35.43 27.0014 36.3307 28.2567 37.4926C30.4156 39.4751 31.8024 42.0325 32.1632 44.6782C32.3521 45.9613 32.2546 47.2704 31.8777 48.5113L31.8797 48.5074ZM34.5432 44.355C34.107 41.1563 32.4526 38.0923 29.8843 35.7312C28.6491 34.5896 27.2341 33.6596 25.6963 32.9785C27.9385 31.0277 30.7348 29.9125 33.428 29.9125C35.7892 29.9125 37.8787 30.771 39.3141 32.3292C40.8683 34.0143 41.5315 36.3567 41.1826 38.918C40.8227 41.5647 39.435 44.1162 37.276 46.1046C36.4288 46.8854 35.4831 47.5518 34.4629 48.0871C34.691 46.8569 34.7175 45.5977 34.5412 44.359L34.5432 44.355Z" fill="#ED7D3A"/>
</g>
<defs>
<clipPath id="clip0">
<rect width="180" height="40.9584" fill="white" transform="translate(10 27.5208)"/>
</clipPath>
</defs>
</svg>
